<svg width="84" height="79" viewBox="0 0 84 79" fill="none" xmlns="http://www.w3.org/2000/svg">
<path d="M68.8048 31.9331L44.3048 11.7716C42.9852 10.6857 41.0148 10.6857 39.6952 11.7716L15.1952 31.9331C14.4357 32.5581 14 33.4611 14 34.4103V62.5417C14 64.3596 15.567 65.8333 17.5 65.8333H31.5C33.433 65.8333 35 64.3596 35 62.5417V49.375C35 47.5571 36.567 46.0833 38.5 46.0833H45.5C47.433 46.0833 49 47.5571 49 49.375V62.5417C49 64.3596 50.567 65.8333 52.5 65.8333H66.5C68.433 65.8333 70 64.3596 70 62.5417V34.4103C70 33.4611 69.5643 32.5581 68.8048 31.9331Z" stroke="white" stroke-width="2" stroke-linecap="round" stroke-linejoin="round"/>
</svg>
